<?xml version="1.0" standalone="no"?>
<!DOCTYPE svg PUBLIC "-//W3C//DTD SVG 20010904//EN"
 "http://www.w3.org/TR/2001/REC-SVG-20010904/DTD/svg10.dtd">
<svg version="1.0" xmlns="http://www.w3.org/2000/svg"
 width="338.000000pt" height="338.000000pt" viewBox="0 0 338.000000 338.000000"
 preserveAspectRatio="xMidYMid meet">
<metadata>
Created by potrace 1.11, written by Peter Selinger 2001-2013
</metadata>
<g transform="translate(0.000000,338.000000) scale(0.100000,-0.100000)"
fill="#000000" stroke="none">
<path d="M0 1690 l0 -1690 1690 0 1690 0 0 1690 0 1690 -1690 0 -1690 0 0
-1690z m2470 820 l0 -150 160 0 160 0 0 -480 0 -480 -160 0 -160 0 0 -320 0
-320 -160 0 -160 0 0 160 0 160 -150 0 -150 0 0 -160 0 -160 -170 0 -170 0 0
160 0 160 -140 0 -140 0 0 -160 0 -160 -170 0 -170 0 0 320 0 320 -160 0 -160
0 0 480 0 480 160 0 160 0 0 150 0 150 790 0 790 0 0 -150z"/>
<path d="M910 1870 l0 -150 300 0 300 0 0 150 0 150 -300 0 -300 0 0 -150z"/>
<path d="M1850 1870 l0 -150 300 0 300 0 0 150 0 150 -300 0 -300 0 0 -150z"/>
</g>
</svg>
